<svg width="78" height="66" viewBox="0 0 78 66" fill="none" xmlns="http://www.w3.org/2000/svg">
<path d="M67.2188 16.875C65.3584 16.875 63.5398 17.4267 61.9929 18.4602C60.4461 19.4938 59.2405 20.9629 58.5285 22.6816C57.8166 24.4004 57.6303 26.2917 57.9932 28.1163C58.3562 29.941 59.252 31.617 60.5675 32.9325C61.883 34.248 63.5591 35.1438 65.3837 35.5068C67.2083 35.8697 69.0996 35.6834 70.8184 34.9715C72.5371 34.2596 74.0062 33.0539 75.0398 31.5071C76.0733 29.9602 76.625 28.1416 76.625 26.2813C76.625 23.7866 75.634 21.394 73.87 19.63C72.106 17.866 69.7135 16.875 67.2188 16.875ZM67.2188 30.3125C66.4215 30.3125 65.6421 30.0761 64.9791 29.6331C64.3162 29.1902 63.7995 28.5606 63.4944 27.8239C63.1893 27.0873 63.1094 26.2768 63.265 25.4948C63.4205 24.7128 63.8045 23.9945 64.3682 23.4307C64.932 22.867 65.6503 22.483 66.4323 22.3275C67.2143 22.1719 68.0248 22.2518 68.7615 22.5569C69.4981 22.862 70.1277 23.3787 70.5706 24.0416C71.0136 24.7046 71.25 25.484 71.25 26.2813C71.25 27.3504 70.8253 28.3758 70.0693 29.1318C69.3133 29.8878 68.2879 30.3125 67.2188 30.3125ZM20.1875 26.2813C20.1875 24.4209 19.6358 22.6023 18.6023 21.0554C17.5687 19.5086 16.0996 18.303 14.3809 17.591C12.6621 16.8791 10.7708 16.6928 8.94618 17.0557C7.12155 17.4187 5.44552 18.3145 4.13003 19.63C2.81454 20.9455 1.91868 22.6216 1.55574 24.4462C1.1928 26.2708 1.37907 28.1621 2.09101 29.8809C2.80295 31.5996 4.00857 33.0687 5.55542 34.1023C7.10227 35.1358 8.92087 35.6875 10.7813 35.6875C13.2759 35.6875 15.6685 34.6965 17.4325 32.9325C19.1965 31.1685 20.1875 28.776 20.1875 26.2813ZM10.7813 30.3125C9.98395 30.3125 9.20455 30.0761 8.54161 29.6331C7.87867 29.1902 7.36198 28.5606 7.05686 27.8239C6.75175 27.0873 6.67191 26.2768 6.82746 25.4948C6.98301 24.7128 7.36695 23.9945 7.93073 23.4307C8.49451 22.867 9.21281 22.483 9.99479 22.3275C10.7768 22.1719 11.5873 22.2518 12.3239 22.5569C13.0606 22.862 13.6902 23.3787 14.1331 24.0416C14.5761 24.7046 14.8125 25.484 14.8125 26.2813C14.8125 27.3504 14.3878 28.3758 13.6318 29.1318C12.8758 29.8878 11.8504 30.3125 10.7813 30.3125ZM26.9063 19.5625C28.7666 19.5625 30.5852 19.0108 32.1321 17.9773C33.6789 16.9437 34.8846 15.4746 35.5965 13.7559C36.3084 12.0371 36.4947 10.1458 36.1318 8.32119C35.7688 6.49655 34.873 4.82052 33.5575 3.50503C32.242 2.18954 30.566 1.29369 28.7413 0.930743C26.9167 0.5678 25.0254 0.754076 23.3066 1.46601C21.5879 2.17795 20.1188 3.38357 19.0852 4.93042C18.0517 6.47727 17.5 8.29587 17.5 10.1563C17.5 12.6509 18.491 15.0435 20.255 16.8075C22.019 18.5715 24.4116 19.5625 26.9063 19.5625ZM26.9063 6.125C27.7036 6.125 28.483 6.36143 29.1459 6.80439C29.8088 7.24735 30.3255 7.87695 30.6306 8.61356C30.9358 9.35018 31.0156 10.1607 30.86 10.9427C30.7045 11.7247 30.3206 12.443 29.7568 13.0068C29.193 13.5706 28.4747 13.9545 27.6927 14.11C26.9107 14.2656 26.1002 14.1858 25.3636 13.8806C24.6269 13.5755 23.9974 13.0588 23.5544 12.3959C23.1114 11.733 22.875 10.9536 22.875 10.1563C22.875 9.0871 23.2997 8.06174 24.0557 7.30573C24.8117 6.54972 25.8371 6.125 26.9063 6.125ZM51.0938 19.5625C52.9541 19.5625 54.7727 19.0108 56.3196 17.9773C57.8664 16.9437 59.0721 15.4746 59.784 13.7559C60.4959 12.0371 60.6822 10.1458 60.3193 8.32119C59.9563 6.49655 59.0605 4.82052 57.745 3.50503C56.4295 2.18954 54.7535 1.29369 52.9288 0.930743C51.1042 0.5678 49.2129 0.754076 47.4941 1.46601C45.7754 2.17795 44.3063 3.38357 43.2727 4.93042C42.2392 6.47727 41.6875 8.29587 41.6875 10.1563C41.6875 12.6509 42.6785 15.0435 44.4425 16.8075C46.2065 18.5715 48.5991 19.5625 51.0938 19.5625ZM51.0938 6.125C51.8911 6.125 52.6705 6.36143 53.3334 6.80439C53.9963 7.24735 54.513 7.87695 54.8181 8.61356C55.1233 9.35018 55.2031 10.1607 55.0476 10.9427C54.892 11.7247 54.5081 12.443 53.9443 13.0068C53.3805 13.5706 52.6622 13.9545 51.8802 14.11C51.0982 14.2656 50.2877 14.1858 49.5511 13.8806C48.8145 13.5755 48.1849 13.0588 47.7419 12.3959C47.2989 11.733 47.0625 10.9536 47.0625 10.1563C47.0625 9.0871 47.4872 8.06174 48.2432 7.30573C48.9992 6.54972 50.0246 6.125 51.0938 6.125ZM58.8606 40.0077C57.4955 39.2546 56.2923 38.2397 55.3199 37.0211C54.3474 35.8025 53.6248 34.4041 53.1934 32.9059C52.2998 29.833 50.433 27.133 47.8736 25.2118C45.3141 23.2906 42.2003 22.2519 39 22.2519C35.7997 22.2519 32.6859 23.2906 30.1265 25.2118C27.567 27.133 25.7002 29.833 24.8066 32.9059C23.9435 35.9205 21.9199 38.4697 19.1797 39.9942C16.551 41.4166 14.4716 43.6747 13.2703 46.4115C12.069 49.1482 11.8144 52.2073 12.5467 55.105C13.279 58.0027 14.9565 60.5735 17.3138 62.4109C19.6711 64.2483 22.5737 65.2473 25.5625 65.25C27.3536 65.2552 29.1272 64.8975 30.7763 64.1985C36.0339 62.0302 41.9359 62.0302 47.1935 64.1985C50.3781 65.5835 53.9751 65.6819 57.2306 64.473C60.4861 63.2641 63.1471 60.8419 64.6559 57.7141C66.1646 54.5862 66.4039 50.9958 65.3235 47.6954C64.2431 44.3951 61.9269 41.6412 58.8606 40.011V40.0077ZM52.4375 59.875C51.3463 59.8759 50.2663 59.6554 49.2629 59.2267C42.6806 56.5078 35.2892 56.5078 28.7069 59.2267C26.794 60.0503 24.6367 60.1017 22.6868 59.3703C20.7368 58.6389 19.1456 57.1813 18.2463 55.3028C17.347 53.4244 17.2095 51.2708 17.8626 49.2932C18.5156 47.3157 19.9085 45.6675 21.7496 44.694C23.7291 43.6008 25.4737 42.1281 26.8836 40.3602C28.2936 38.5923 29.3412 36.5639 29.9666 34.3908C30.5346 32.4343 31.7224 30.715 33.3514 29.4916C34.9805 28.2682 36.9627 27.6067 39 27.6067C41.0373 27.6067 43.0195 28.2682 44.6486 29.4916C46.2776 30.715 47.4654 32.4343 48.0334 34.3908C48.6609 36.5679 49.7117 38.5998 51.1258 40.3701C52.5398 42.1404 54.2893 43.6144 56.2739 44.7074C57.859 45.5576 59.1143 46.9133 59.8401 48.559C60.566 50.2047 60.7207 52.0458 60.2796 53.7896C59.8385 55.5333 58.8271 57.0795 57.4061 58.1822C55.9851 59.2849 54.2362 59.8808 52.4375 59.875Z" fill="#F7941D" stroke="#F7941D"/>
</svg>
