<svg width="461" height="135" viewBox="0 0 461 135" fill="none" xmlns="http://www.w3.org/2000/svg">
<path d="M453.87 135.929C461.231 125.974 463.508 115.913 457.035 102.962C450.193 89.2675 437.334 80.0245 427.975 68.0355C415.792 52.4244 421.266 32.804 442.065 27.6368C460.555 23.0446 452.663 -3.49933 434.16 1.09285C402.622 8.92382 383.015 39.3402 394.718 68.5871C399.81 81.3114 409.889 90.8204 419.398 100.807C424.821 106.502 433.032 113.75 428.875 121.464C427.263 124.456 423.436 127.155 420.99 129.717C419.964 130.789 417.447 132.659 416.063 133.949C415.017 134.188 414.03 134.579 413.082 135.037C426.681 134.826 440.283 135.186 453.862 135.933L453.87 135.929Z" fill="#F7941D"/>
<path d="M109.868 134.286C123.734 134.114 137.596 133.942 151.462 133.77C146.188 107.621 135.61 101.311 135.61 101.311C119.436 109.209 107.984 124.3 101.716 134.396C104.437 134.356 107.158 134.321 109.868 134.286Z" fill="#F7941D"/>
<path d="M41.852 134.286C27.9861 134.114 14.1242 133.942 0.258286 133.77C5.53172 107.621 16.1101 101.311 16.1101 101.311C32.2843 109.209 43.7356 124.3 50.004 134.396C47.2827 134.356 44.5614 134.321 41.852 134.286Z" fill="#F7941D"/>
</svg>
