<svg width="91" height="167" viewBox="0 0 91 167" fill="none" xmlns="http://www.w3.org/2000/svg">
<g clip-path="url(#clip0_45_691)">
<mask id="mask0_45_691" style="mask-type:luminance" maskUnits="userSpaceOnUse" x="-183" y="0" width="263" height="167">
<path d="M-183 0H79.82V166.02H-183V0Z" fill="white"/>
</mask>
<g mask="url(#mask0_45_691)">
<path d="M90.48 140.21C72.35 153.55 54.02 157.67 30.43 145.94C5.49 133.54 -11.35 110.24 -33.19 93.29C-61.62 71.21 -97.37 81.14 -106.77 118.82C-115.13 152.32 -163.48 138.02 -155.12 104.5C-140.86 47.35 -85.45 11.83 -32.18 33.04C-9.01 42.27 8.32 60.53 26.51 77.76C36.89 87.59 50.09 102.46 64.14 94.93C69.59 92.01 74.51 85.08 79.18 80.65C81.13 78.79 84.54 74.23 86.89 71.72C87.33 69.82 88.04 68.04 88.87 66.32C88.48 90.96 89.14 115.6 90.5 140.21H90.48Z" fill="#F7941D"/>
</g>
</g>
<defs>
<clipPath id="clip0_45_691">
<rect width="273.48" height="166.02" fill="white" transform="matrix(-1 0 0 1 90.48 0)"/>
</clipPath>
</defs>
</svg>
