<svg width="139" height="180" viewBox="0 0 139 180" fill="none" xmlns="http://www.w3.org/2000/svg">
<g clip-path="url(#clip0_13_29)">
<path opacity="0.1" d="M158 0H39V180H158V0Z" fill="#F7941D"/>
</g>
<path d="M139 83.2869C128.779 90.3783 118.445 92.5737 105.146 86.3356C91.0866 79.7429 81.5898 67.3505 69.2833 58.3348C53.2554 46.595 33.1052 51.8725 27.8016 71.9119C23.0869 89.7291 -4.16904 82.1223 0.545686 64.2984C8.58802 33.9081 39.8172 15.02 69.8509 26.2946C82.9166 31.2007 92.683 40.9125 102.935 50.0754C108.785 55.3028 116.225 63.2108 124.146 59.2082C127.219 57.6554 129.993 53.9675 132.621 51.6115C133.725 50.6243 135.644 48.1946 136.967 46.866C137.212 45.8554 137.616 44.9083 138.081 43.9913C137.861 57.0932 138.234 70.1984 139 83.2836L139 83.2869Z" fill="#B7660D"/>
<defs>
<clipPath id="clip0_13_29">
<rect width="119" height="180" fill="white" transform="translate(39)"/>
</clipPath>
</defs>
</svg>
