<svg width="144" height="205" viewBox="0 0 144 205" fill="none" xmlns="http://www.w3.org/2000/svg">
<g clip-path="url(#clip0_48_828)">
<path opacity="0.5" d="M-6.47822 0C50.0901 -2.47268e-06 95.9494 45.8926 95.9494 102.502C95.9494 159.107 50.0901 205 -6.47821 205" fill="#F7941D"/>
<path d="M-15 93.8725C-3.30894 102.478 8.51197 105.142 23.7254 97.572C39.8072 89.572 50.6704 74.5344 64.7475 63.5942C83.0815 49.3484 106.131 55.7525 112.198 80.0694C117.591 101.69 148.768 92.4593 143.375 70.8308C134.176 33.9534 98.4532 11.0335 64.0983 24.7148C49.1527 30.6681 37.9811 42.453 26.2535 53.5718C19.5619 59.915 11.0523 69.511 1.99079 64.6541C-1.52343 62.7698 -4.69677 58.2947 -7.70374 55.4358C-8.96578 54.2378 -11.1611 51.2896 -12.6748 49.6774C-12.9548 48.451 -13.4174 47.3017 -13.949 46.189C-13.6974 62.0876 -14.1235 77.9902 -15 93.8685L-15 93.8725Z" fill="white"/>
</g>
<defs>
<clipPath id="clip0_48_828">
<rect width="205" height="159" fill="white" transform="translate(-15 205) rotate(-90)"/>
</clipPath>
</defs>
</svg>
