<svg width="136" height="200" viewBox="0 0 136 200" fill="none" xmlns="http://www.w3.org/2000/svg">
<g clip-path="url(#clip0_48_872)">
<path opacity="0.18" d="M146.693 0C91.5474 -2.41047e-06 46.8418 44.7733 46.8418 100.002C46.8418 155.227 91.5474 200 146.693 200" fill="#F7941D" fill-opacity="0.2"/>
<path d="M155 91.5829C143.603 99.9782 132.08 102.577 117.249 95.1922C101.572 87.3873 90.9817 72.7164 77.2587 62.0431C59.3859 48.1448 36.9164 54.3927 31.0024 78.1165C25.745 99.2095 -4.64819 90.2042 0.609208 69.1032C9.57723 33.1253 44.401 10.7644 77.8916 24.112C92.4612 29.9201 103.352 41.4175 114.784 52.2651C121.308 58.4536 129.603 67.8156 138.437 63.0771C141.862 61.2388 144.956 56.8728 147.887 54.0837C149.118 52.9149 151.258 50.0386 152.733 48.4657C153.006 47.2692 153.457 46.148 153.975 45.0624C153.73 60.5732 154.146 76.088 155 91.579L155 91.5829Z" fill="#F7941D" fill-opacity="0.2"/>
</g>
<defs>
<clipPath id="clip0_48_872">
<rect width="200" height="155" fill="white" transform="matrix(4.37114e-08 -1 -1 -4.37114e-08 155 200)"/>
</clipPath>
</defs>
</svg>
