<svg width="228" height="209" viewBox="0 0 228 209" fill="none" xmlns="http://www.w3.org/2000/svg">
<path opacity="0.1" d="M228 0H90V209H228V0Z" fill="#F7941D"/>
<path d="M211 101.116C199.456 92.5426 187.784 89.8885 172.762 97.43C156.882 105.4 146.155 120.382 132.255 131.282C114.152 145.475 91.3922 139.094 85.4018 114.868C80.0766 93.3275 49.2911 102.524 54.6163 124.072C63.7001 160.813 98.9734 183.648 132.896 170.017C147.654 164.086 158.685 152.345 170.265 141.267C176.873 134.947 185.275 125.387 194.223 130.226C197.693 132.103 200.826 136.562 203.795 139.41C205.042 140.604 207.209 143.541 208.704 145.147C208.98 146.369 209.437 147.514 209.962 148.622C209.714 132.783 210.135 116.939 211 101.12V101.116Z" fill="#58595B"/>
</svg>
