<svg width="147" height="200" viewBox="0 0 147 200" fill="none" xmlns="http://www.w3.org/2000/svg">
<path opacity="0.18" d="M0.307364 0C55.4526 -2.41047e-06 100.158 44.7733 100.158 100.002C100.158 155.227 55.4526 200 0.307373 200" fill="#F7941D"/>
<path d="M-3.4739e-07 92.3712C11.3969 100.766 22.9205 103.365 37.7511 95.9805C53.4284 88.1756 64.0183 73.5047 77.7413 62.8314C95.6141 48.9331 118.084 55.181 123.998 78.9048C129.255 99.9979 159.648 90.9925 154.391 69.8915C145.423 33.9136 110.599 11.5527 77.1084 24.9003C62.5388 30.7084 51.6482 42.2058 40.2157 53.0535C33.6924 59.2419 25.3969 68.6039 16.5633 63.8655C13.1375 62.0272 10.044 57.6612 7.1127 54.872C5.88242 53.7032 3.74228 50.8269 2.26673 49.254C1.99377 48.0575 1.5428 46.9363 1.02458 45.8508C1.26984 61.3616 0.854473 76.8763 -3.47563e-07 92.3673L-3.4739e-07 92.3712Z" fill="#F7941D"/>
</svg>
