<svg width="131" height="67" viewBox="0 0 131 67" fill="none" xmlns="http://www.w3.org/2000/svg">
<path opacity="0.2" d="M-8 60.2869C2.22053 67.3783 12.5546 69.5737 25.8544 63.3356C39.9134 56.7429 49.4102 44.3505 61.7167 35.3348C77.7446 23.595 97.8948 28.8725 103.198 48.9119C107.913 66.7291 135.169 59.1223 130.454 41.2984C122.412 10.9081 91.1828 -7.98005 61.1491 3.29459C48.0834 8.20068 38.317 17.9125 28.0645 27.0754C22.2146 32.3028 14.7754 40.2108 6.85365 36.2082C3.78146 34.6554 1.00726 30.9675 -1.62148 28.6115C-2.72477 27.6243 -4.64401 25.1946 -5.96725 23.866C-6.21203 22.8554 -6.61645 21.9083 -7.08118 20.9913C-6.86123 34.0932 -7.23373 47.1984 -8 60.2836L-8 60.2869Z" fill="#F7941D"/>
</svg>
