<svg width="263" height="50" viewBox="0 0 263 50" fill="none" xmlns="http://www.w3.org/2000/svg">
<path d="M34.5645 0.0864145C32.8874 -0.233919 31.3235 0.924934 30.0076 2.01155L21.6538 8.91756C17.2728 12.5386 12.7661 16.3198 10.2757 21.4262C9.73553 22.5349 9.30842 23.8916 9.93338 24.9562C10.5835 26.0648 12.0501 26.3255 13.3346 26.3883C20.4321 26.7431 27.4135 24.6013 34.508 24.2119C38.9267 23.9701 43.3548 24.4129 47.7798 24.3658C50.4273 24.3375 53.2223 24.0894 55.3987 22.582C55.7599 22.3307 56.1085 22.0355 56.2906 21.6367C56.4853 21.2064 56.4571 20.7134 56.4037 20.2486C55.9546 16.3637 53.8598 12.8055 51.1433 9.99161C48.4267 7.17457 45.1103 5.02017 41.7563 3.0071C39.3538 1.5656 37.3533 0.384764 34.5676 0.0864145" fill="url(#paint0_linear_7_10)"/>
<path d="M52.1891 8.43696C52.2927 6.851 52.1954 4.77197 51.3411 2.93477C51.3411 2.93477 49.8902 2.73063 47.4124 4.60238C49.0768 5.79264 50.6816 7.06141 52.1922 8.43696H52.1891Z" fill="#3A3A3A"/>
<path d="M18.9718 8.69134C20.4384 7.4791 21.905 6.26686 23.3685 5.05462C20.542 2.69923 18.8681 2.93477 18.8681 2.93477C17.8255 5.17396 17.9071 7.78059 18.1113 9.40424C18.3971 9.16556 18.686 8.92688 18.9718 8.69134Z" fill="#3A3A3A"/>
<path d="M11.4816 32.6284C10.6777 32.0349 9.86428 31.8527 8.81535 32.374C7.70674 32.9236 6.9593 33.96 5.99202 34.7106C4.72953 35.6904 3.14357 35.2507 2.72588 33.5769C2.3553 32.0882 0.20718 32.7258 0.577762 34.2112C1.21215 36.7488 3.67117 38.3253 6.03599 37.3832C7.06608 36.9749 7.83551 36.1615 8.64262 35.3984C9.10427 34.9618 9.68841 34.3023 10.3134 34.6352C10.5552 34.764 10.775 35.0717 10.9823 35.2696C11.0702 35.3512 11.221 35.5554 11.3246 35.6653C11.3435 35.7501 11.3749 35.8286 11.4126 35.904C11.3969 34.8111 11.4251 33.715 11.4848 32.6221L11.4816 32.6284Z" fill="#3A3A3A"/>
<path d="M42.5445 49.6376C44.2655 49.289 45.9394 48.6232 47.3181 47.5805C46.3634 47.7909 45.2485 47.5711 44.0645 46.7012C44.165 48.1144 43.5055 49.0848 42.5445 49.6407V49.6376Z" fill="url(#paint1_linear_7_10)"/>
<path d="M53.1846 25.3804C51.4793 25.9425 49.595 26.065 47.7798 26.0838C43.3548 26.1278 38.9266 25.6881 34.5079 25.93C27.4417 26.3162 20.4886 28.4392 13.4256 28.1095C12.6342 33.2128 12.7033 38.4481 13.6423 43.5263C13.8559 44.6757 14.1479 45.888 14.9833 46.7076C15.9569 47.6624 17.4235 47.8602 18.777 48.0047C23.6888 48.5323 28.5975 49.063 33.5092 49.5906C35.2554 49.7791 37.0172 49.9644 38.7696 49.9706C38.5717 49.9047 38.377 49.8293 38.198 49.7382C35.7107 48.4852 34.712 45.4546 35.962 42.9673L37.4443 40.0215C37.7835 39.3494 38.2546 38.7904 38.8073 38.3476C40.1671 37.0568 42.1928 36.5732 44.0645 37.2798L47.1485 38.4449C49.237 39.2332 50.4932 41.262 50.4021 43.3787C50.8135 42.3612 51.115 41.2902 51.3819 40.2288C52.5659 35.4866 53.172 30.6031 53.1846 25.7164C53.1846 25.6065 53.1846 25.4934 53.1846 25.3835V25.3804ZM34.6115 42.9547C33.5752 43.564 32.1148 43.005 31.3485 41.7048C30.5823 40.4046 30.799 38.8532 31.8322 38.2439C32.8686 37.6347 34.3289 38.1937 35.0952 39.4939C35.8615 40.794 35.6448 42.3455 34.6115 42.9547ZM37.3375 37.3583C36.2415 37.8514 34.8502 37.1385 34.2284 35.7598C33.6066 34.3842 33.9897 32.8674 35.0858 32.3712C36.1818 31.8781 37.5731 32.591 38.1949 33.9697C38.8167 35.3452 38.4336 36.8621 37.3375 37.3583ZM42.2524 35.1285C41.1187 35.5274 39.7934 34.6983 39.2909 33.2725C38.7884 31.8467 39.3003 30.3707 40.4341 29.9687C41.5678 29.5698 42.8931 30.3989 43.3956 31.8247C43.8981 33.2505 43.3862 34.7266 42.2524 35.1285ZM48.2979 36.7773C47.2616 37.3866 45.8012 36.8276 45.0349 35.5274C44.2686 34.2272 44.4853 32.6758 45.5186 32.0665C46.5549 31.4573 48.0153 32.0163 48.7816 33.3165C49.5479 34.6166 49.3312 36.1681 48.2979 36.7773Z" fill="url(#paint2_linear_7_10)"/>
<path d="M69.9133 47.4837C68.1689 47.4837 67.4849 46.7175 67.4849 45.1441C67.4849 44.248 67.6969 42.9756 68.5041 42.9756C68.8872 42.9756 69.2703 43.1876 69.6944 43.1876C70.5906 43.1876 71.0557 42.1205 71.0557 38.5906V22.077C71.0557 21.0099 71.5209 19.2244 73.1832 19.2244C74.8455 19.2244 75.5638 20.7568 75.5638 21.865V38.5906C75.5638 43.9128 74.2846 47.4837 69.9065 47.4837H69.9133ZM68.6341 44.891C68.6341 44.0838 68.4631 43.9128 68.251 43.9128C68.08 43.9128 67.9979 44.3779 67.9979 44.8089C67.9979 45.8761 68.511 46.8064 68.9351 46.8064C69.1061 46.8064 69.3592 46.7243 69.3592 46.4644C69.3592 45.7803 68.6341 45.3972 68.6341 44.891ZM70.7616 15.8656C70.7616 14.3333 71.7809 13.2729 73.3132 13.2729C74.8455 13.2729 75.9059 14.2512 75.9059 15.6535C75.9059 17.1448 74.7156 18.2941 73.2243 18.2941C71.733 18.2941 70.7548 17.3158 70.7548 15.8656H70.7616ZM72.848 14.4154C72.848 14.1622 72.7181 13.9912 72.4239 13.9912C71.7398 13.9912 71.2336 14.9284 71.2336 15.7767C71.2336 16.1597 71.2747 16.8849 71.6167 16.8849C71.8698 16.8849 71.8288 15.9477 71.8698 15.7767C72.0408 14.7984 72.848 14.8805 72.848 14.4154ZM72.164 21.0509C72.205 20.8389 72.4171 20.2848 72.246 20.2848C71.6509 20.2848 71.4388 21.735 71.4388 22.2412C71.4388 22.7474 71.5688 23.3494 71.8219 23.3494C72.164 23.3494 71.9519 21.776 72.164 21.0509Z" fill="#B7660D"/>
<path d="M89.6148 39.569C89.6148 38.8439 89.5738 38.5019 89.4438 38.5019C89.2728 38.5019 89.1428 38.8439 88.7597 39.3091C87.9936 40.3284 86.5912 42.0727 84.4637 42.0727C80.8039 42.0727 78.5054 39.4322 78.5054 35.0952V17.8633C78.5054 16.543 79.4016 15.8179 80.5508 15.8179C81.7822 15.8179 83.0614 16.755 83.0614 17.9864V34.671C83.0614 36.5865 83.9096 37.9478 85.1478 37.9478C87.1932 37.9478 89.1907 34.459 89.1907 32.0784V18.4994C89.1907 16.714 89.8748 15.8179 91.1882 15.8179C92.5017 15.8179 93.6988 16.584 93.6988 19.0125V38.8849C93.6988 41.6076 92.4674 42.0796 91.2293 42.0796C89.9911 42.0796 89.6148 40.9714 89.6148 39.569ZM80.0378 16.3788C79.7368 16.3788 78.9706 17.275 78.9706 17.9111C78.9706 18.1643 79.1006 18.3353 79.1827 18.3353C79.5247 18.3353 80.2019 16.974 80.2019 16.673C80.2019 16.4199 80.072 16.372 80.0309 16.372L80.0378 16.3788ZM80.5919 38.1667C80.3798 37.5715 80.2498 37.1474 80.0378 37.1474C79.7847 37.1474 79.6957 37.3595 79.6957 37.7015C79.6957 38.5087 81.016 40.3831 81.6522 40.3831C81.8232 40.3831 81.9942 40.171 81.9942 39.87C82.0353 39.2749 80.9271 39.1859 80.5919 38.1667ZM90.552 16.3378C90.1279 16.3378 89.6148 17.316 89.6148 17.9522C89.6148 18.3353 89.7448 18.3763 89.9158 18.3763C90.1279 18.3763 90.2168 17.5281 90.682 17.056C91.1472 16.5909 90.8941 16.3309 90.552 16.3309V16.3378ZM90.511 38.8507C90.2989 38.8507 90.21 39.2749 90.21 39.7469C90.21 40.472 90.6341 41.5734 91.0172 41.5734C91.2703 41.5734 90.7641 40.6362 90.7162 39.87C90.6752 39.3159 90.7162 38.8507 90.5041 38.8507H90.511Z" fill="#B7660D"/>
<path d="M95.785 34.0756C95.785 32.3312 96.9343 31.052 98.4666 31.1409C99.4448 31.182 99.8279 31.7771 99.8279 33.2684C99.8279 35.3548 100.936 38.8436 102.681 38.8436C104.425 38.8436 105.403 37.9064 105.403 36.08C105.403 33.6515 103.789 32.167 102.256 30.6347C98.1725 26.5507 96.5991 24.0812 96.5991 21.7827C96.5991 17.9109 99.1917 15.5303 103.365 15.5303C107.195 15.5303 109.877 19.3611 109.877 22.5489C109.877 24.2523 108.728 25.9077 107.284 25.9077C106.6 25.9077 105.581 25.3126 105.581 24.3343C105.581 21.0166 104.432 19.4842 103.2 19.4842C101.969 19.4842 101.415 20.1204 101.415 21.5296C101.415 23.274 102.263 24.6353 105.287 27.7411C108.988 31.5308 110.178 33.4873 110.178 35.6558C110.178 39.6577 107.243 42.4624 103.112 42.4624C99.5817 42.4624 95.7919 39.3567 95.7919 34.0756H95.785ZM98.0835 32.2902C98.0835 32.1602 98.0835 32.0781 97.9536 32.0781C97.0164 31.996 96.2913 33.6515 96.7222 35.0128C96.8043 35.2249 96.9343 35.4369 97.0643 35.4369C97.3653 35.4369 97.0643 34.7528 97.3653 33.9867C97.6662 33.2205 98.0493 32.7553 98.0904 32.2833L98.0835 32.2902ZM98.1246 20.5856C97.9536 20.5856 97.7825 20.7977 97.7825 20.9276C97.7825 21.0576 97.8646 21.1397 98.0835 21.1808C98.2135 21.1808 98.3366 21.0508 98.3845 20.8798C98.3845 20.7087 98.2546 20.5788 98.1314 20.5788L98.1246 20.5856ZM100.17 17.6099C100.594 17.3089 100.765 16.8437 100.594 16.8437C99.869 16.7616 98.1656 18.8002 98.0835 19.7784C98.0835 19.9494 98.1656 20.0315 98.3366 20.0315C98.6376 20.0725 98.7197 19.5184 99.0618 18.9643C99.2738 18.5813 99.7458 17.9451 100.17 17.603V17.6099Z" fill="#B7660D"/>
<path d="M114.166 33.3093V25.9896H113.701C112.853 25.9896 112.381 25.3056 112.381 24.3273C112.381 23.3491 112.682 22.754 113.701 22.754H114.166V18.5811C114.166 16.4536 114.932 15.7695 116.212 15.7695C117.491 15.7695 118.551 16.5767 118.551 18.7042V22.7471H119.872C120.891 22.7471 121.274 23.2602 121.274 24.0674C121.274 25.1756 120.932 25.9828 120.043 25.9828H118.551V33.9865C118.551 37.0922 118.633 38.2825 119.235 38.2825H119.577L120.261 38.1525C121.452 38.1525 121.835 39.0008 121.835 40.109C121.835 40.9572 121.534 42.0655 118.517 42.0655C114.173 42.0655 114.173 37.7216 114.173 33.2956L114.166 33.3093ZM113.27 23.267C112.969 23.267 112.757 23.7801 112.757 24.3752C112.757 24.7583 112.887 25.3124 113.181 25.3124C113.434 25.3124 113.222 24.5462 113.222 24.0332C113.222 23.7322 113.352 23.267 113.263 23.267H113.27ZM115.569 16.3715C115.015 16.3715 114.673 17.5618 114.673 18.0338C114.673 18.67 114.755 18.93 114.885 18.93C115.097 18.93 115.138 18.0817 115.268 17.6986C115.48 17.1035 116.034 16.3783 115.569 16.3783V16.3715ZM115.74 37.8173C115.699 37.3522 115.398 37.0922 115.227 37.0922C114.885 37.0922 114.926 37.7284 114.926 38.0294C114.926 38.4946 115.521 40.41 116.116 40.41C116.287 40.41 116.499 40.109 116.499 39.9448C116.499 39.7328 115.774 38.6245 115.733 37.8173H115.74Z" fill="#B7660D"/>
<path d="M137.275 19.4779C137.275 17.0494 137.911 15.8591 139.826 15.8591C140.893 15.8591 141.529 16.6253 141.529 17.1383C141.529 18.0345 141.612 18.5886 141.783 18.5886C142.125 18.5886 143.062 15.5649 146.126 15.5649C149.827 15.5649 152.427 19.2248 152.427 24.841C152.427 31.3945 149.574 35.6084 144.895 35.6905L142.98 35.7315C142.131 35.7315 142.131 37.0108 142.131 38.0711V39.3024C142.131 41.2999 140.729 42.0661 139.58 42.0661C138.431 42.0661 137.281 41.341 137.281 39.1314V19.471L137.275 19.4779ZM138.465 38.6731C138.465 38.0369 138.335 37.6059 138.164 37.6059C137.911 37.6059 137.822 38.16 137.822 38.8373C137.822 40.1986 138.287 41.2178 138.841 41.2178C138.971 41.2178 139.183 41.0879 139.183 40.9647C139.183 40.8416 139.101 40.7116 138.971 40.5816C138.67 40.2807 138.458 39.4735 138.458 38.6662L138.465 38.6731ZM138.595 18.5886C138.595 17.5214 139.826 16.8852 139.826 16.6321C139.826 16.4611 139.696 16.42 139.402 16.42C138.636 16.42 137.87 17.4872 137.87 18.8896C137.87 19.5258 138.041 19.9978 138.335 19.9978C138.506 19.9978 138.8 19.6968 138.8 19.3137C138.8 19.3137 138.588 19.0606 138.588 18.5886H138.595ZM144.211 31.8255C146.127 31.8255 147.529 29.1439 147.529 25.0599C147.529 21.6532 146.804 19.6968 145.271 19.6968C143.226 19.6968 142.125 21.4822 142.125 23.1445V30.4641C142.125 31.2303 142.508 31.8255 142.932 31.8255H144.211Z" fill="#B7660D"/>
<path d="M155.06 29.6912C155.06 21.0513 157.701 15.9002 162.209 15.6471C165.445 15.476 166.334 17.9866 166.676 17.9866C167.018 17.9866 166.635 15.5171 168.763 15.5171C169.83 15.5171 170.678 16.1122 170.678 16.8784V33.392C170.678 35.6905 170.931 37.989 170.931 39.0493C170.931 41.0468 170.083 42.4082 168.886 42.4082C167.524 42.4082 166.587 40.7048 166.587 38.3242C166.587 37.5991 166.505 37.216 166.375 37.216C165.862 37.216 165.055 42.4082 161.101 42.4082C157.147 42.4082 155.06 37.6401 155.06 29.6843V29.6912ZM159.404 40.2465C159.322 39.9455 158.173 38.8441 157.913 37.948C157.742 37.4828 157.612 36.2857 157.277 36.2857C157.024 36.2857 156.976 37.1818 157.359 38.2832C157.783 39.4324 158.59 40.6638 159.062 40.6638C159.274 40.6638 159.445 40.4107 159.404 40.2396V40.2465ZM165.999 26.5034C165.999 22.7615 164.596 19.5668 163.023 19.5668C161.149 19.5668 159.616 23.8628 159.616 29.055C159.616 33.693 160.848 38.249 162.127 38.249C163.7 38.249 165.999 31.3124 165.999 26.5034ZM160.294 40.2944C159.993 40.2944 159.781 40.5064 159.781 40.8074C159.781 41.0605 159.952 41.3615 160.123 41.3615C160.506 41.3615 160.971 40.2944 160.294 40.2944ZM167.825 39.3982C167.825 39.3982 167.825 38.933 167.524 38.933C167.312 38.933 167.223 39.1041 167.223 39.4461C167.223 40.3422 167.86 41.5325 168.373 41.5325C168.585 41.5325 168.797 41.3205 168.797 41.1495C168.797 40.7664 167.818 40.2533 167.818 39.4051L167.825 39.3982ZM168.037 17.5214C168.208 16.9673 168.42 16.5432 168.42 16.2901C168.42 16.1191 168.338 16.078 168.249 16.078C167.948 16.078 167.353 16.7142 167.353 17.6104C167.353 18.0345 167.483 18.3765 167.654 18.3765C167.866 18.3765 167.955 17.9114 168.037 17.5283V17.5214Z" fill="#B7660D"/>
<path d="M176.807 40.841C175.829 39.0966 173.359 21.1806 173.359 17.9449C173.359 16.7546 174.256 15.7764 175.446 15.7764C176.636 15.7764 177.785 16.2416 178.039 17.8628C178.292 19.4772 179.783 38.2073 180.508 38.2073C180.679 38.2073 183.19 18.841 183.532 17.3155C183.833 15.9953 184.428 15.7832 185.577 15.7832C186.726 15.7832 187.958 16.2484 188.218 17.8697C188.471 19.4841 189.791 38.3372 190.516 38.3372C190.687 38.3372 193.198 18.8479 193.54 17.3155C193.752 16.3373 194.306 15.8243 194.86 15.8243C195.544 15.8243 197.2 16.2894 197.2 17.1856C197.2 18.2938 194.607 37.188 193.581 40.3758C193.116 41.826 191.412 42.1612 190.605 42.1612C188.649 42.1612 187.369 41.8192 186.815 40.841C186.391 40.1158 185.495 29.6084 185.201 29.6084C184.777 29.6084 183.881 39.2265 183.498 40.3758C183.032 41.826 181.411 42.1612 180.604 42.1612C178.647 42.1612 177.327 41.8192 176.814 40.841H176.807ZM174.55 16.7136C174.208 16.7136 173.914 17.7328 173.914 18.8821C173.914 19.5662 173.996 19.8603 174.126 19.8603C174.427 19.8603 174.379 17.9039 174.721 17.4318C175.022 17.0077 174.762 16.7067 174.55 16.7067V16.7136ZM177.101 38.5425C176.93 38.5425 176.93 38.8845 176.93 39.0555C176.93 39.3976 177.313 41.1009 177.779 41.1009C178.032 41.1009 178.203 40.7999 177.95 40.3758C177.526 39.6917 177.437 38.5425 177.101 38.5425ZM184.503 16.6657C184.25 16.6657 183.99 17.4729 183.99 18.068C183.99 18.3211 184.031 18.7042 184.161 18.7042C184.414 18.7042 184.674 17.4729 184.674 17.2129C184.674 16.9119 184.592 16.6588 184.503 16.6588V16.6657ZM187.096 38.5425C186.925 38.5425 186.925 38.8845 186.925 39.0555C186.925 39.3976 187.308 41.1009 187.773 41.1009C188.026 41.1009 188.197 40.7999 187.944 40.3758C187.52 39.6917 187.431 38.5425 187.096 38.5425ZM194.497 16.6657C194.244 16.6657 193.984 17.4729 193.984 18.068C193.984 18.3211 194.025 18.7042 194.155 18.7042C194.409 18.7042 194.668 17.4729 194.668 17.2129C194.668 16.9119 194.586 16.6588 194.497 16.6588V16.6657Z" fill="#B7660D"/>
<path d="M213.617 37.3938C213.617 36.0735 214.212 35.0542 215.061 35.0542C215.909 35.0542 216.723 35.5194 216.723 36.3335C216.723 37.8658 218.043 38.714 219.576 38.714C221.874 38.714 222.681 37.1407 222.681 33.8639V31.9896C222.681 31.3534 222.681 30.2862 222.599 30.2862C222.558 30.2862 221.149 33.6519 217.872 33.6519C215.15 33.6519 211.914 31.6954 211.914 24.4579V17.6513C211.914 16.632 212.55 15.7359 213.829 15.7359C215.492 15.7359 216.47 16.5431 216.47 17.7813V24.8888C216.47 29.1028 217.318 29.5269 218.556 29.5269C220.602 29.5269 222.599 26.2091 222.599 22.8435V18.2875C222.599 16.5021 223.448 15.647 224.645 15.647C225.541 15.647 227.237 16.3721 227.237 18.7937V34.5822C227.237 39.5623 224.303 42.326 219.576 42.326C216.258 42.326 213.617 40.3285 213.617 37.3869V37.3938ZM213.405 16.0711C212.81 16.0711 212.427 17.4734 212.427 17.7744C212.427 18.2396 212.557 18.3285 212.639 18.3285C212.981 18.3285 213.275 16.8373 213.576 16.5842C213.788 16.4131 213.617 16.0711 213.405 16.0711ZM213.747 29.308C213.535 28.7128 213.494 28.2408 213.405 28.2408C213.193 28.2408 213.193 28.5829 213.193 29.048C213.193 29.7321 214.26 31.6886 214.643 31.6886C214.726 31.6886 214.944 31.5586 214.944 31.2644C214.944 31.0113 214.691 30.7103 214.52 30.5393C214.178 30.1973 213.925 29.7321 213.754 29.308H213.747ZM215.027 36.5455C215.109 36.3745 215.328 35.5673 215.027 35.5673C214.602 35.5673 214.13 36.7165 214.13 37.6127C214.13 38.2078 214.171 38.6798 214.301 38.6798C214.855 38.6798 214.555 37.5306 215.027 36.5524V36.5455ZM224.221 16.0779C223.755 16.0779 223.071 17.2682 223.071 17.9044C223.071 18.1165 223.242 18.3696 223.372 18.3696C223.584 18.3696 223.543 17.6855 223.837 17.2203C224.138 16.7552 224.563 16.0711 224.221 16.0711V16.0779Z" fill="#B7660D"/>
<path d="M229.83 29.397C229.83 23.1377 231.574 15.5649 237.574 15.5649C243.573 15.5649 245.235 22.1594 245.235 29.0139C245.235 35.8684 243.532 42.3739 237.574 42.3739C231.616 42.3739 229.83 35.6494 229.83 29.397ZM231.828 21.8243C231.574 21.8243 231.403 22.2073 231.403 22.5494C231.403 23.0146 231.657 23.1445 231.828 23.1445C231.91 23.1445 232.211 22.9325 232.211 22.4605C232.211 21.9063 232.081 21.8243 231.828 21.8243ZM234.468 18.2055C234.81 17.9045 234.386 17.5214 234.256 17.5214C233.62 17.5214 232.046 20.1141 232.046 21.1812C232.046 21.4343 232.088 21.5233 232.259 21.5233C232.341 21.5233 232.56 21.2223 232.813 20.5861C233.066 19.9499 233.791 18.7528 234.475 18.2055H234.468ZM240.939 28.9729C240.939 26.5033 240.303 18.2055 237.581 18.2055C234.858 18.2055 234.345 26.7154 234.345 29.0139C234.345 32.5916 234.899 39.6924 237.581 39.6924C240.262 39.6924 240.939 32.5437 240.939 28.966V28.9729Z" fill="#B7660D"/>
<path d="M258.855 39.569C258.855 38.8439 258.814 38.5019 258.684 38.5019C258.513 38.5019 258.383 38.8439 258 39.3091C257.234 40.3284 255.832 42.0727 253.704 42.0727C250.045 42.0727 247.746 39.4322 247.746 35.0952V17.8633C247.746 16.543 248.642 15.8179 249.791 15.8179C251.023 15.8179 252.302 16.755 252.302 17.9864V34.671C252.302 36.5865 253.15 37.9478 254.388 37.9478C256.434 37.9478 258.431 34.459 258.431 32.0784V18.4994C258.431 16.714 259.115 15.8179 260.429 15.8179C261.742 15.8179 262.939 16.584 262.939 19.0125V38.8849C262.939 41.6076 261.708 42.0796 260.47 42.0796C259.232 42.0796 258.855 40.9714 258.855 39.569ZM249.278 16.3788C248.977 16.3788 248.211 17.275 248.211 17.9111C248.211 18.1643 248.341 18.3353 248.423 18.3353C248.765 18.3353 249.443 16.974 249.443 16.673C249.443 16.4199 249.313 16.372 249.272 16.372L249.278 16.3788ZM249.832 38.1667C249.62 37.5715 249.49 37.1474 249.278 37.1474C249.025 37.1474 248.936 37.3595 248.936 37.7015C248.936 38.5087 250.257 40.3831 250.893 40.3831C251.064 40.3831 251.235 40.171 251.235 39.87C251.276 39.2749 250.168 39.1859 249.832 38.1667ZM259.793 16.3378C259.368 16.3378 258.855 17.316 258.855 17.9522C258.855 18.3353 258.985 18.3763 259.156 18.3763C259.368 18.3763 259.457 17.5281 259.923 17.056C260.388 16.5909 260.135 16.3309 259.793 16.3309V16.3378ZM259.752 38.8507C259.54 38.8507 259.451 39.2749 259.451 39.7469C259.451 40.472 259.875 41.5734 260.258 41.5734C260.511 41.5734 260.005 40.6362 259.957 39.87C259.916 39.3159 259.957 38.8507 259.745 38.8507H259.752Z" fill="#B7660D"/>
<defs>
<linearGradient id="paint0_linear_7_10" x1="14.6536" y1="4.58678" x2="46.6837" y2="30.4867" gradientUnits="userSpaceOnUse">
<stop stop-color="#F7941D"/>
<stop offset="1" stop-color="#FFCA83"/>
</linearGradient>
<linearGradient id="paint1_linear_7_10" x1="43.8384" y1="47.0749" x2="45.7887" y2="49.8071" gradientUnits="userSpaceOnUse">
<stop offset="0.01" stop-color="#58595B"/>
<stop offset="1"/>
</linearGradient>
<linearGradient id="paint2_linear_7_10" x1="24.6624" y1="22.8774" x2="49.9875" y2="58.3841" gradientUnits="userSpaceOnUse">
<stop offset="0.01" stop-color="#58595B"/>
<stop offset="1"/>
</linearGradient>
</defs>
</svg>
