<svg width="94" height="145" viewBox="0 0 94 145" fill="none" xmlns="http://www.w3.org/2000/svg">
<g opacity="0.5" clip-path="url(#clip0_45_682)">
<path opacity="0.18" d="M-11.9973 0C27.8496 -1.74176e-06 60.153 32.4606 60.153 72.5014C60.153 112.539 27.8496 145 -11.9973 145" fill="#F7941D"/>
<path d="M-18 66.3977C-9.76479 72.4842 -1.43811 74.3685 9.27824 69.0144C20.6063 63.3558 28.2584 52.7194 38.1744 44.9813C51.0889 34.905 67.3249 39.4347 71.5983 56.6345C75.3972 71.927 97.3587 65.3981 93.5598 50.0998C87.0797 24.0159 61.9167 7.80421 37.717 17.4812C27.1893 21.6921 19.32 30.0277 11.0591 37.8923C6.34547 42.3789 0.351285 49.1663 -6.03165 45.731C-8.50707 44.3982 -10.7424 41.2328 -12.8605 39.2107C-13.7495 38.3633 -15.2959 36.278 -16.3621 35.1377C-16.5593 34.2702 -16.8852 33.4573 -17.2597 32.6703C-17.0824 43.9156 -17.3826 55.1638 -18 66.3948L-18 66.3977Z" fill="#F7941D"/>
</g>
<defs>
<clipPath id="clip0_45_682">
<rect width="145" height="112" fill="white" transform="translate(-18 145) rotate(-90)"/>
</clipPath>
</defs>
</svg>
