<svg width="202" height="40" viewBox="0 0 202 40" fill="none" xmlns="http://www.w3.org/2000/svg">
<path d="M26.7355 0.880148C25.4485 0.634311 24.2482 1.52366 23.2384 2.35758L16.8273 7.65754C13.4651 10.4365 10.0065 13.3383 8.09529 17.2572C7.68074 18.108 7.35295 19.1492 7.83258 19.9663C8.33148 20.817 9.45703 21.0171 10.4428 21.0653C15.8898 21.3376 21.2476 19.6939 26.6921 19.395C30.0832 19.2095 33.4816 19.5493 36.8775 19.5131C38.9093 19.4915 41.0543 19.3011 42.7246 18.1442C43.0017 17.9514 43.2693 17.7248 43.409 17.4187C43.5585 17.0885 43.5368 16.7101 43.4958 16.3534C43.1512 13.372 41.5436 10.6413 39.4588 8.48181C37.374 6.31989 34.8289 4.66652 32.2548 3.1216C30.411 2.01534 28.8757 1.10911 26.7379 0.880148" fill="#F5F5F5"/>
<path d="M40.2614 7.28879C40.3409 6.07166 40.2662 4.47613 39.6106 3.06618C39.6106 3.06618 38.4971 2.90952 36.5955 4.34598C37.8729 5.25943 39.1045 6.23314 40.2638 7.28879H40.2614Z" fill="#F5F5F5"/>
<path d="M14.7691 7.48401C15.8946 6.55369 17.0201 5.62337 18.1433 4.69304C15.9741 2.88542 14.6895 3.06618 14.6895 3.06618C13.8893 4.78463 13.952 6.78507 14.1087 8.03112C14.328 7.84795 14.5497 7.66477 14.7691 7.48401Z" fill="#F5F5F5"/>
<path d="M9.02081 25.8543C8.40381 25.3988 7.77957 25.259 6.97458 25.6591C6.12379 26.0809 5.55017 26.8762 4.80784 27.4522C3.83895 28.2042 2.62182 27.8668 2.30126 26.5822C2.01687 25.4397 0.368311 25.929 0.652711 27.069C1.13956 29.0164 3.02672 30.2263 4.84158 29.5033C5.63211 29.19 6.22261 28.5657 6.84202 27.9801C7.19631 27.6451 7.6446 27.1389 8.12423 27.3944C8.30981 27.4932 8.47852 27.7294 8.63759 27.8812C8.70508 27.9439 8.82076 28.1006 8.9003 28.1849C8.91476 28.25 8.93886 28.3103 8.96779 28.3681C8.95574 27.5294 8.97743 26.6882 9.02322 25.8495L9.02081 25.8543Z" fill="#F5F5F5"/>
<path d="M32.8598 38.9077C34.1806 38.6402 35.4652 38.1293 36.5233 37.3291C35.7906 37.4906 34.935 37.3219 34.0263 36.6542C34.1035 37.7388 33.5973 38.4836 32.8598 38.9102V38.9077Z" fill="#F5F5F5"/>
<path d="M41.0254 20.2916C39.7167 20.723 38.2706 20.817 36.8775 20.8315C33.4816 20.8652 30.0833 20.5278 26.6922 20.7134C21.2693 21.0099 15.9332 22.6391 10.5127 22.3861C9.90537 26.3026 9.95839 30.3203 10.679 34.2176C10.8429 35.0997 11.0671 36.03 11.7082 36.6591C12.4553 37.3918 13.5809 37.5436 14.6197 37.6545C18.3892 38.0594 22.1562 38.4667 25.9257 38.8716C27.2658 39.0162 28.6179 39.1584 29.9628 39.1632C29.8109 39.1126 29.6615 39.0548 29.5241 38.9849C27.6153 38.0232 26.8488 35.6974 27.8081 33.7886L28.9457 31.5278C29.206 31.012 29.5675 30.583 29.9917 30.2432C31.0353 29.2526 32.5899 28.8815 34.0263 29.4237L36.3931 30.3179C37.9959 30.9229 38.9599 32.4798 38.89 34.1043C39.2058 33.3234 39.4371 32.5015 39.642 31.6869C40.5506 28.0475 41.0158 24.2997 41.0254 20.5495C41.0254 20.4652 41.0254 20.3784 41.0254 20.294V20.2916ZM26.7717 33.7789C25.9764 34.2465 24.8556 33.8175 24.2675 32.8197C23.6795 31.8219 23.8458 30.6312 24.6387 30.1637C25.4341 29.6961 26.5548 30.1251 27.1429 31.1229C27.731 32.1207 27.5647 33.3113 26.7717 33.7789ZM28.8637 29.484C28.0226 29.8624 26.9549 29.3153 26.4777 28.2572C26.0005 27.2016 26.2945 26.0375 27.1356 25.6567C27.9768 25.2783 29.0445 25.8254 29.5217 26.8834C29.9989 27.9391 29.7049 29.1032 28.8637 29.484ZM32.6356 27.7728C31.7656 28.0789 30.7485 27.4426 30.3629 26.3484C29.9772 25.2542 30.3701 24.1214 31.2402 23.8129C32.1102 23.5068 33.1273 24.1431 33.5129 25.2373C33.8986 26.3315 33.5057 27.4643 32.6356 27.7728ZM37.2752 29.0381C36.4799 29.5057 35.3591 29.0767 34.7711 28.0789C34.183 27.0811 34.3493 25.8904 35.1422 25.4229C35.9376 24.9553 37.0583 25.3843 37.6464 26.3821C38.2345 27.3799 38.0682 28.5705 37.2752 29.0381Z" fill="#F5F5F5"/>
<path d="M53.8637 37.2547C52.525 37.2547 52 36.6667 52 35.4593C52 34.7715 52.1627 33.795 52.7822 33.795C53.0762 33.795 53.3702 33.9578 53.6957 33.9578C54.3835 33.9578 54.7404 33.1388 54.7404 30.4299V17.7566C54.7404 16.9376 55.0974 15.5674 56.3732 15.5674C57.6489 15.5674 58.2001 16.7434 58.2001 17.5939V30.4299C58.2001 34.5143 57.2184 37.2547 53.8585 37.2547H53.8637ZM52.882 35.265C52.882 34.6455 52.7507 34.5143 52.588 34.5143C52.4567 34.5143 52.3937 34.8713 52.3937 35.202C52.3937 36.021 52.7875 36.735 53.113 36.735C53.2442 36.735 53.4385 36.672 53.4385 36.4725C53.4385 35.9475 52.882 35.6535 52.882 35.265ZM54.5147 12.9897C54.5147 11.8137 55.2969 11 56.4729 11C57.6489 11 58.4626 11.7507 58.4626 12.827C58.4626 13.9714 57.5491 14.8534 56.4047 14.8534C55.2602 14.8534 54.5094 14.1027 54.5094 12.9897H54.5147ZM56.1159 11.8767C56.1159 11.6825 56.0162 11.5512 55.7904 11.5512C55.2654 11.5512 54.8769 12.2705 54.8769 12.9215C54.8769 13.2154 54.9084 13.772 55.1709 13.772C55.3652 13.772 55.3337 13.0527 55.3652 12.9215C55.4964 12.1707 56.1159 12.2337 56.1159 11.8767ZM55.5909 16.9691C55.6224 16.8064 55.7852 16.3812 55.6539 16.3812C55.1972 16.3812 55.0344 17.4941 55.0344 17.8826C55.0344 18.2711 55.1342 18.7331 55.3284 18.7331C55.5909 18.7331 55.4282 17.5256 55.5909 16.9691Z" fill="#F5F5F5"/>
<path d="M68.9835 31.1809C68.9835 30.6244 68.952 30.3619 68.8522 30.3619C68.721 30.3619 68.6212 30.6244 68.3272 30.9814C67.7392 31.7636 66.663 33.1023 65.0303 33.1023C62.2216 33.1023 60.4576 31.0759 60.4576 27.7474V14.523C60.4576 13.5097 61.1454 12.9532 62.0274 12.9532C62.9723 12.9532 63.9541 13.6725 63.9541 14.6175V27.422C63.9541 28.8919 64.6051 29.9366 65.5553 29.9366C67.125 29.9366 68.658 27.2592 68.658 25.4322V15.0112C68.658 13.641 69.183 12.9532 70.1909 12.9532C71.1989 12.9532 72.1177 13.5412 72.1177 15.4049V30.6559C72.1177 32.7453 71.1727 33.1076 70.2224 33.1076C69.2722 33.1076 68.9835 32.2571 68.9835 31.1809ZM61.6336 13.3837C61.4026 13.3837 60.8146 14.0715 60.8146 14.5597C60.8146 14.754 60.9144 14.8852 60.9774 14.8852C61.2399 14.8852 61.7596 13.8405 61.7596 13.6095C61.7596 13.4152 61.6599 13.3785 61.6284 13.3785L61.6336 13.3837ZM62.0589 30.1046C61.8961 29.6479 61.7964 29.3224 61.6336 29.3224C61.4394 29.3224 61.3711 29.4852 61.3711 29.7477C61.3711 30.3671 62.3844 31.8056 62.8726 31.8056C63.0038 31.8056 63.1351 31.6429 63.1351 31.4119C63.1666 30.9551 62.3161 30.8869 62.0589 30.1046ZM69.7027 13.3522C69.3772 13.3522 68.9835 14.103 68.9835 14.5912C68.9835 14.8852 69.0832 14.9167 69.2145 14.9167C69.3772 14.9167 69.4455 14.2657 69.8025 13.9035C70.1594 13.5465 69.9652 13.347 69.7027 13.347V13.3522ZM69.6712 30.6296C69.5085 30.6296 69.4402 30.9551 69.4402 31.3174C69.4402 31.8739 69.7657 32.7191 70.0597 32.7191C70.2539 32.7191 69.8655 31.9999 69.8287 31.4119C69.7972 30.9866 69.8287 30.6296 69.666 30.6296H69.6712Z" fill="#F5F5F5"/>
<path d="M73.7188 26.9648C73.7188 25.626 74.6007 24.6443 75.7767 24.7126C76.5274 24.7441 76.8214 25.2008 76.8214 26.3453C76.8214 27.9465 77.6719 30.6239 79.0106 30.6239C80.3494 30.6239 81.1001 29.9047 81.1001 28.503C81.1001 26.6393 79.8611 25.5 78.6852 24.3241C75.551 21.1899 74.3435 19.2947 74.3435 17.5307C74.3435 14.5593 76.3332 12.7323 79.5356 12.7323C82.4756 12.7323 84.5335 15.6722 84.5335 18.1187C84.5335 19.4259 83.6516 20.6964 82.5438 20.6964C82.0188 20.6964 81.2366 20.2396 81.2366 19.4889C81.2366 16.9427 80.3546 15.7667 79.4096 15.7667C78.4647 15.7667 78.0394 16.255 78.0394 17.3365C78.0394 18.6752 78.6904 19.7199 81.0109 22.1034C83.851 25.0118 84.7645 26.5133 84.7645 28.1775C84.7645 31.2487 82.5123 33.4011 79.3414 33.4011C76.6324 33.4011 73.724 31.0177 73.724 26.9648H73.7188ZM75.4827 25.5945C75.4827 25.4948 75.4827 25.4318 75.383 25.4318C74.6637 25.3688 74.1072 26.6393 74.438 27.684C74.501 27.8468 74.6007 28.0095 74.7005 28.0095C74.9315 28.0095 74.7005 27.4845 74.9315 26.8965C75.1625 26.3085 75.4565 25.9515 75.488 25.5893L75.4827 25.5945ZM75.5142 16.612C75.383 16.612 75.2517 16.7747 75.2517 16.8745C75.2517 16.9742 75.3147 17.0372 75.4827 17.0687C75.5825 17.0687 75.677 16.969 75.7137 16.8377C75.7137 16.7065 75.614 16.6067 75.5195 16.6067L75.5142 16.612ZM77.0839 14.3283C77.4094 14.0973 77.5407 13.7403 77.4094 13.7403C76.8529 13.6773 75.5457 15.2417 75.4827 15.9925C75.4827 16.1237 75.5457 16.1867 75.677 16.1867C75.908 16.2182 75.971 15.793 76.2335 15.3677C76.3962 15.0737 76.7584 14.5855 77.0839 14.323V14.3283Z" fill="#F5F5F5"/>
<path d="M87.8253 26.377V20.7596H87.4683C86.8173 20.7596 86.4551 20.2346 86.4551 19.4838C86.4551 18.7331 86.6861 18.2764 87.4683 18.2764H87.8253V15.0739C87.8253 13.4412 88.4133 12.9162 89.395 12.9162C90.3768 12.9162 91.1905 13.5357 91.1905 15.1684V18.2711H92.2037C92.9859 18.2711 93.2799 18.6649 93.2799 19.2844C93.2799 20.1348 93.0174 20.7543 92.335 20.7543H91.1905V26.8967C91.1905 29.2802 91.2535 30.1936 91.7155 30.1936H91.978L92.503 30.0939C93.4164 30.0939 93.7104 30.7449 93.7104 31.5954C93.7104 32.2463 93.4794 33.0968 91.1642 33.0968C87.8306 33.0968 87.8306 29.7631 87.8306 26.3665L87.8253 26.377ZM87.1376 18.6701C86.9066 18.6701 86.7438 19.0638 86.7438 19.5206C86.7438 19.8146 86.8436 20.2398 87.0693 20.2398C87.2636 20.2398 87.1008 19.6518 87.1008 19.2581C87.1008 19.0271 87.2006 18.6701 87.1323 18.6701H87.1376ZM88.9015 13.3782C88.4763 13.3782 88.2138 14.2917 88.2138 14.6539C88.2138 15.1422 88.2768 15.3417 88.3765 15.3417C88.5393 15.3417 88.5708 14.6907 88.6705 14.3967C88.8333 13.94 89.2585 13.3835 88.9015 13.3835V13.3782ZM89.0328 29.8366C89.0013 29.4796 88.7703 29.2801 88.639 29.2801C88.3765 29.2801 88.408 29.7684 88.408 29.9994C88.408 30.3564 88.8648 31.8263 89.3215 31.8263C89.4528 31.8263 89.6155 31.5954 89.6155 31.4694C89.6155 31.3066 89.059 30.4561 89.0275 29.8366H89.0328Z" fill="#F5F5F5"/>
<path d="M105.56 15.7616C105.56 13.8979 106.048 12.9844 107.518 12.9844C108.337 12.9844 108.825 13.5724 108.825 13.9661C108.825 14.6539 108.888 15.0791 109.019 15.0791C109.282 15.0791 110.001 12.7586 112.353 12.7586C115.193 12.7586 117.188 15.5673 117.188 19.8775C117.188 24.9069 114.999 28.1408 111.408 28.2038L109.938 28.2353C109.287 28.2353 109.287 29.2171 109.287 30.0308V30.9758C109.287 32.5087 108.211 33.0967 107.329 33.0967C106.447 33.0967 105.565 32.5402 105.565 30.8445V15.7563L105.56 15.7616ZM106.473 30.4928C106.473 30.0045 106.373 29.6738 106.242 29.6738C106.048 29.6738 105.98 30.099 105.98 30.6188C105.98 31.6635 106.336 32.4457 106.762 32.4457C106.861 32.4457 107.024 32.346 107.024 32.2515C107.024 32.157 106.961 32.0573 106.861 31.9575C106.63 31.7265 106.468 31.107 106.468 30.4875L106.473 30.4928ZM106.573 15.0791C106.573 14.2601 107.518 13.7719 107.518 13.5776C107.518 13.4464 107.418 13.4149 107.192 13.4149C106.604 13.4149 106.016 14.2339 106.016 15.3101C106.016 15.7983 106.147 16.1606 106.373 16.1606C106.504 16.1606 106.73 15.9296 106.73 15.6356C106.73 15.6356 106.567 15.4413 106.567 15.0791H106.573ZM110.883 25.2376C112.353 25.2376 113.429 23.1797 113.429 20.0455C113.429 17.431 112.873 15.9296 111.697 15.9296C110.127 15.9296 109.282 17.2998 109.282 18.5755V24.1929C109.282 24.7809 109.576 25.2376 109.901 25.2376H110.883Z" fill="#F5F5F5"/>
<path d="M119.209 23.5998C119.209 16.9692 121.236 13.016 124.695 12.8218C127.179 12.6905 127.861 14.6172 128.123 14.6172C128.386 14.6172 128.092 12.722 129.725 12.722C130.544 12.722 131.195 13.1788 131.195 13.7667V26.44C131.195 28.2039 131.389 29.9679 131.389 30.7817C131.389 32.3146 130.738 33.3594 129.819 33.3594C128.774 33.3594 128.055 32.0521 128.055 30.2252C128.055 29.6687 127.992 29.3747 127.892 29.3747C127.499 29.3747 126.879 33.3594 123.845 33.3594C120.81 33.3594 119.209 29.7002 119.209 23.5945V23.5998ZM122.543 31.7004C122.48 31.4694 121.598 30.6241 121.398 29.9364C121.267 29.5794 121.167 28.6607 120.91 28.6607C120.716 28.6607 120.679 29.3484 120.973 30.1937C121.299 31.0756 121.918 32.0206 122.28 32.0206C122.443 32.0206 122.574 31.8264 122.543 31.6951V31.7004ZM127.604 21.1533C127.604 18.2817 126.528 15.8299 125.32 15.8299C123.882 15.8299 122.706 19.1269 122.706 23.1115C122.706 26.671 123.651 30.1674 124.632 30.1674C125.84 30.1674 127.604 24.844 127.604 21.1533ZM123.225 31.7371C122.994 31.7371 122.832 31.8999 122.832 32.1309C122.832 32.3251 122.963 32.5561 123.094 32.5561C123.388 32.5561 123.745 31.7371 123.225 31.7371ZM129.005 31.0494C129.005 31.0494 129.005 30.6924 128.774 30.6924C128.612 30.6924 128.543 30.8236 128.543 31.0861C128.543 31.7739 129.032 32.6874 129.425 32.6874C129.588 32.6874 129.751 32.5246 129.751 32.3934C129.751 32.0994 129 31.7056 129 31.0546L129.005 31.0494ZM129.168 14.2602C129.299 13.835 129.462 13.5095 129.462 13.3152C129.462 13.184 129.399 13.1525 129.331 13.1525C129.1 13.1525 128.643 13.6407 128.643 14.3285C128.643 14.654 128.743 14.9165 128.874 14.9165C129.037 14.9165 129.105 14.5595 129.168 14.2655V14.2602Z" fill="#F5F5F5"/>
<path d="M135.899 32.1572C135.148 30.8185 133.253 17.069 133.253 14.5858C133.253 13.6723 133.94 12.9216 134.854 12.9216C135.767 12.9216 136.649 13.2786 136.844 14.5228C137.038 15.7618 138.182 30.136 138.739 30.136C138.87 30.136 140.797 15.2735 141.059 14.1028C141.29 13.0896 141.747 12.9268 142.629 12.9268C143.511 12.9268 144.456 13.2838 144.655 14.5281C144.85 15.767 145.863 30.2357 146.419 30.2357C146.551 30.2357 148.477 15.2788 148.74 14.1028C148.903 13.3521 149.328 12.9583 149.753 12.9583C150.278 12.9583 151.549 13.3153 151.549 14.0031C151.549 14.8535 149.559 29.3538 148.771 31.8002C148.414 32.9132 147.107 33.1704 146.488 33.1704C144.986 33.1704 144.004 32.9079 143.579 32.1572C143.254 31.6007 142.566 23.5369 142.34 23.5369C142.015 23.5369 141.327 30.9182 141.033 31.8002C140.676 32.9132 139.432 33.1704 138.812 33.1704C137.311 33.1704 136.298 32.9079 135.904 32.1572H135.899ZM134.166 13.6408C133.904 13.6408 133.678 14.423 133.678 15.305C133.678 15.83 133.741 16.0558 133.841 16.0558C134.072 16.0558 134.035 14.5543 134.297 14.1921C134.528 13.8666 134.329 13.6356 134.166 13.6356V13.6408ZM136.124 30.3932C135.993 30.3932 135.993 30.6557 135.993 30.787C135.993 31.0495 136.287 32.3567 136.644 32.3567C136.838 32.3567 136.97 32.1257 136.775 31.8002C136.45 31.2752 136.382 30.3932 136.124 30.3932ZM141.805 13.6041C141.61 13.6041 141.411 14.2235 141.411 14.6803C141.411 14.8745 141.442 15.1685 141.542 15.1685C141.736 15.1685 141.936 14.2235 141.936 14.0241C141.936 13.7931 141.873 13.5988 141.805 13.5988V13.6041ZM143.794 30.3932C143.663 30.3932 143.663 30.6557 143.663 30.787C143.663 31.0495 143.957 32.3567 144.314 32.3567C144.508 32.3567 144.64 32.1257 144.445 31.8002C144.12 31.2752 144.052 30.3932 143.794 30.3932ZM149.475 13.6041C149.281 13.6041 149.081 14.2235 149.081 14.6803C149.081 14.8745 149.113 15.1685 149.212 15.1685C149.407 15.1685 149.606 14.2235 149.606 14.0241C149.606 13.7931 149.543 13.5988 149.475 13.5988V13.6041Z" fill="#F5F5F5"/>
<path d="M164.148 29.5114C164.148 28.4982 164.605 27.7159 165.256 27.7159C165.907 27.7159 166.532 28.0729 166.532 28.6977C166.532 29.8736 167.545 30.5246 168.721 30.5246C170.485 30.5246 171.104 29.3171 171.104 26.8024V25.364C171.104 24.8757 171.104 24.0568 171.041 24.0568C171.01 24.0568 169.928 26.6397 167.414 26.6397C165.324 26.6397 162.841 25.1382 162.841 19.5838V14.3602C162.841 13.578 163.329 12.8902 164.311 12.8902C165.587 12.8902 166.337 13.5097 166.337 14.46V19.9146C166.337 23.1485 166.988 23.474 167.939 23.474C169.508 23.474 171.041 20.9278 171.041 18.3449V14.8484C171.041 13.4782 171.692 12.822 172.611 12.822C173.299 12.822 174.601 13.3785 174.601 15.2369V27.3537C174.601 31.1756 172.349 33.2966 168.721 33.2966C166.175 33.2966 164.148 31.7636 164.148 29.5062V29.5114ZM163.985 13.1475C163.529 13.1475 163.235 14.2237 163.235 14.4547C163.235 14.8117 163.334 14.8799 163.397 14.8799C163.66 14.8799 163.886 13.7355 164.117 13.5412C164.279 13.41 164.148 13.1475 163.985 13.1475ZM164.248 23.306C164.085 22.8493 164.054 22.487 163.985 22.487C163.823 22.487 163.823 22.7495 163.823 23.1065C163.823 23.6315 164.642 25.133 164.936 25.133C164.999 25.133 165.167 25.0332 165.167 24.8075C165.167 24.6132 164.972 24.3823 164.841 24.251C164.579 23.9885 164.384 23.6315 164.253 23.306H164.248ZM165.23 28.8604C165.293 28.7292 165.461 28.1097 165.23 28.1097C164.904 28.1097 164.542 28.9917 164.542 29.6794C164.542 30.1361 164.573 30.4984 164.673 30.4984C165.098 30.4984 164.867 29.6164 165.23 28.8657V28.8604ZM172.285 13.1527C171.929 13.1527 171.404 14.0662 171.404 14.5544C171.404 14.7172 171.535 14.9114 171.635 14.9114C171.797 14.9114 171.766 14.3865 171.992 14.0295C172.223 13.6725 172.548 13.1475 172.285 13.1475V13.1527Z" fill="#F5F5F5"/>
<path d="M176.591 23.3739C176.591 18.5703 177.929 12.7586 182.533 12.7586C187.138 12.7586 188.413 17.8195 188.413 23.0799C188.413 28.3403 187.106 33.333 182.533 33.333C177.961 33.333 176.591 28.1723 176.591 23.3739ZM178.123 17.5623C177.929 17.5623 177.798 17.8563 177.798 18.1188C177.798 18.4758 177.992 18.5755 178.123 18.5755C178.186 18.5755 178.417 18.4128 178.417 18.0505C178.417 17.6253 178.318 17.5623 178.123 17.5623ZM180.15 14.7851C180.412 14.5541 180.087 14.2601 179.987 14.2601C179.499 14.2601 178.291 16.2498 178.291 17.0688C178.291 17.2631 178.323 17.3313 178.454 17.3313C178.517 17.3313 178.685 17.1003 178.879 16.6121C179.074 16.1238 179.63 15.2051 180.155 14.7851H180.15ZM185.116 23.0484C185.116 21.1532 184.628 14.7851 182.539 14.7851C180.449 14.7851 180.055 21.316 180.055 23.0799C180.055 25.8256 180.481 31.275 182.539 31.275C184.597 31.275 185.116 25.7889 185.116 23.0432V23.0484Z" fill="#F5F5F5"/>
<path d="M198.866 31.1809C198.866 30.6244 198.834 30.3619 198.735 30.3619C198.603 30.3619 198.504 30.6244 198.21 30.9814C197.622 31.7636 196.545 33.1023 194.913 33.1023C192.104 33.1023 190.34 31.0759 190.34 27.7474V14.523C190.34 13.5097 191.028 12.9532 191.91 12.9532C192.855 12.9532 193.836 13.6725 193.836 14.6175V27.422C193.836 28.8919 194.487 29.9366 195.438 29.9366C197.007 29.9366 198.54 27.2592 198.54 25.4322V15.0112C198.54 13.641 199.065 12.9532 200.073 12.9532C201.081 12.9532 202 13.5412 202 15.4049V30.6559C202 32.7453 201.055 33.1076 200.105 33.1076C199.155 33.1076 198.866 32.2571 198.866 31.1809ZM191.516 13.3837C191.285 13.3837 190.697 14.0715 190.697 14.5597C190.697 14.754 190.797 14.8852 190.86 14.8852C191.122 14.8852 191.642 13.8405 191.642 13.6095C191.642 13.4152 191.542 13.3785 191.511 13.3785L191.516 13.3837ZM191.941 30.1046C191.778 29.6479 191.679 29.3224 191.516 29.3224C191.322 29.3224 191.253 29.4852 191.253 29.7477C191.253 30.3671 192.267 31.8056 192.755 31.8056C192.886 31.8056 193.017 31.6429 193.017 31.4119C193.049 30.9551 192.198 30.8869 191.941 30.1046ZM199.585 13.3522C199.26 13.3522 198.866 14.103 198.866 14.5912C198.866 14.8852 198.966 14.9167 199.097 14.9167C199.26 14.9167 199.328 14.2657 199.685 13.9035C200.042 13.5465 199.848 13.347 199.585 13.347V13.3522ZM199.554 30.6296C199.391 30.6296 199.323 30.9551 199.323 31.3174C199.323 31.8739 199.648 32.7191 199.942 32.7191C200.136 32.7191 199.748 31.9999 199.711 31.4119C199.68 30.9866 199.711 30.6296 199.548 30.6296H199.554Z" fill="#F5F5F5"/>
</svg>
