<svg width="61" height="67" viewBox="0 0 61 67" fill="none" xmlns="http://www.w3.org/2000/svg">
<path d="M7.45833 66.4167C5.64792 66.4167 4.09809 65.7721 2.80885 64.4828C1.51962 63.1936 0.875 61.6438 0.875 59.8333V13.75C0.875 11.9396 1.51962 10.3898 2.80885 9.10053C4.09809 7.8113 5.64792 7.16668 7.45833 7.16668H10.75V0.583344H17.3333V7.16668H43.6667V0.583344H50.25V7.16668H53.5417C55.3521 7.16668 56.9019 7.8113 58.1911 9.10053C59.4804 10.3898 60.125 11.9396 60.125 13.75V59.8333C60.125 61.6438 59.4804 63.1936 58.1911 64.4828C56.9019 65.7721 55.3521 66.4167 53.5417 66.4167H7.45833ZM7.45833 59.8333H53.5417V26.9167H7.45833V59.8333ZM7.45833 20.3333H53.5417V13.75H7.45833V20.3333ZM30.5 40.0833C29.5674 40.0833 28.7856 39.7679 28.1547 39.137C27.5238 38.5061 27.2083 37.7243 27.2083 36.7917C27.2083 35.859 27.5238 35.0773 28.1547 34.4464C28.7856 33.8155 29.5674 33.5 30.5 33.5C31.4326 33.5 32.2144 33.8155 32.8453 34.4464C33.4762 35.0773 33.7917 35.859 33.7917 36.7917C33.7917 37.7243 33.4762 38.5061 32.8453 39.137C32.2144 39.7679 31.4326 40.0833 30.5 40.0833ZM17.3333 40.0833C16.4007 40.0833 15.6189 39.7679 14.988 39.137C14.3571 38.5061 14.0417 37.7243 14.0417 36.7917C14.0417 35.859 14.3571 35.0773 14.988 34.4464C15.6189 33.8155 16.4007 33.5 17.3333 33.5C18.266 33.5 19.0477 33.8155 19.6786 34.4464C20.3095 35.0773 20.625 35.859 20.625 36.7917C20.625 37.7243 20.3095 38.5061 19.6786 39.137C19.0477 39.7679 18.266 40.0833 17.3333 40.0833ZM43.6667 40.0833C42.734 40.0833 41.9523 39.7679 41.3214 39.137C40.6905 38.5061 40.375 37.7243 40.375 36.7917C40.375 35.859 40.6905 35.0773 41.3214 34.4464C41.9523 33.8155 42.734 33.5 43.6667 33.5C44.5993 33.5 45.3811 33.8155 46.012 34.4464C46.6429 35.0773 46.9583 35.859 46.9583 36.7917C46.9583 37.7243 46.6429 38.5061 46.012 39.137C45.3811 39.7679 44.5993 40.0833 43.6667 40.0833ZM30.5 53.25C29.5674 53.25 28.7856 52.9346 28.1547 52.3037C27.5238 51.6728 27.2083 50.891 27.2083 49.9583C27.2083 49.0257 27.5238 48.2439 28.1547 47.613C28.7856 46.9821 29.5674 46.6667 30.5 46.6667C31.4326 46.6667 32.2144 46.9821 32.8453 47.613C33.4762 48.2439 33.7917 49.0257 33.7917 49.9583C33.7917 50.891 33.4762 51.6728 32.8453 52.3037C32.2144 52.9346 31.4326 53.25 30.5 53.25ZM17.3333 53.25C16.4007 53.25 15.6189 52.9346 14.988 52.3037C14.3571 51.6728 14.0417 50.891 14.0417 49.9583C14.0417 49.0257 14.3571 48.2439 14.988 47.613C15.6189 46.9821 16.4007 46.6667 17.3333 46.6667C18.266 46.6667 19.0477 46.9821 19.6786 47.613C20.3095 48.2439 20.625 49.0257 20.625 49.9583C20.625 50.891 20.3095 51.6728 19.6786 52.3037C19.0477 52.9346 18.266 53.25 17.3333 53.25ZM43.6667 53.25C42.734 53.25 41.9523 52.9346 41.3214 52.3037C40.6905 51.6728 40.375 50.891 40.375 49.9583C40.375 49.0257 40.6905 48.2439 41.3214 47.613C41.9523 46.9821 42.734 46.6667 43.6667 46.6667C44.5993 46.6667 45.3811 46.9821 46.012 47.613C46.6429 48.2439 46.9583 49.0257 46.9583 49.9583C46.9583 50.891 46.6429 51.6728 46.012 52.3037C45.3811 52.9346 44.5993 53.25 43.6667 53.25Z" fill="#F7941D"/>
</svg>
