<svg width="56" height="70" viewBox="0 0 56 70" fill="none" xmlns="http://www.w3.org/2000/svg">
<path d="M0.666321 59.5001V52.5001H7.49965V28.0001C7.49965 23.1584 8.92327 18.8563 11.7705 15.0938C14.6177 11.3313 18.3191 8.86676 22.8747 7.70009V5.25009C22.8747 3.79176 23.3729 2.55218 24.3694 1.53134C25.366 0.510508 26.576 9.15527e-05 27.9997 9.15527e-05C29.4233 9.15527e-05 30.6333 0.510508 31.6299 1.53134C32.6264 2.55218 33.1247 3.79176 33.1247 5.25009V7.70009C37.6802 8.86676 41.3816 11.3313 44.2288 15.0938C47.076 18.8563 48.4997 23.1584 48.4997 28.0001V52.5001H55.333V59.5001H0.666321ZM27.9997 70.0001C26.1205 70.0001 24.5118 69.3147 23.1736 67.9438C21.8354 66.573 21.1663 64.9251 21.1663 63.0001H34.833C34.833 64.9251 34.1639 66.573 32.8257 67.9438C31.4875 69.3147 29.8788 70.0001 27.9997 70.0001ZM14.333 52.5001H41.6663V28.0001C41.6663 24.1501 40.3281 20.8543 37.6517 18.1126C34.9753 15.3709 31.758 14.0001 27.9997 14.0001C24.2413 14.0001 21.024 15.3709 18.3476 18.1126C15.6712 20.8543 14.333 24.1501 14.333 28.0001V52.5001Z" fill="#F7941D"/>
</svg>
