<svg width="164" height="179" viewBox="0 0 164 179" fill="none" xmlns="http://www.w3.org/2000/svg">
<g opacity="0.8">
<path opacity="0.4" d="M195 0H76.9737V179H195V0Z" fill="#F7941D"/>
<path d="M180.461 86.6015C170.587 79.2589 160.604 76.9858 147.757 83.4448C134.175 90.2711 125.001 103.102 113.113 112.437C97.6298 124.593 78.1644 119.129 73.041 98.3795C68.4865 79.9311 42.1568 87.8074 46.7113 106.263C54.4804 137.729 84.6483 157.287 113.661 145.613C126.283 140.533 135.718 130.477 145.622 120.989C151.273 115.577 158.459 107.389 166.112 111.533C169.079 113.141 171.759 116.959 174.299 119.399C175.365 120.421 177.219 122.937 178.497 124.312C178.733 125.359 179.124 126.34 179.573 127.289C179.36 113.723 179.72 100.154 180.461 86.605V86.6015Z" fill="white"/>
</g>
</svg>
