<svg width="146" height="200" viewBox="0 0 146 200" fill="none" xmlns="http://www.w3.org/2000/svg">
<g clip-path="url(#clip0_48_802)">
<path opacity="0.18" d="M-0.692636 0C54.4526 -2.41047e-06 99.1582 44.7733 99.1582 100.002C99.1582 155.227 54.4526 200 -0.692627 200" fill="#F7941D"/>
<path d="M-9 91.5829C2.39694 99.9782 13.9205 102.577 28.7511 95.1922C44.4284 87.3873 55.0183 72.7164 68.7413 62.0431C86.6141 48.1448 109.084 54.3927 114.998 78.1165C120.255 99.2095 150.648 90.2042 145.391 69.1032C136.423 33.1253 101.599 10.7644 68.1084 24.112C53.5388 29.9201 42.6482 41.4175 31.2157 52.2651C24.6924 58.4536 16.3969 67.8156 7.56334 63.0771C4.13754 61.2388 1.04402 56.8728 -1.8873 54.0837C-3.11758 52.9149 -5.25772 50.0386 -6.73327 48.4657C-7.00623 47.2692 -7.4572 46.148 -7.97542 45.0624C-7.73016 60.5732 -8.14553 76.088 -9 91.579L-9 91.5829Z" fill="#F7941D"/>
</g>
<defs>
<clipPath id="clip0_48_802">
<rect width="200" height="155" fill="white" transform="translate(-9 200) rotate(-90)"/>
</clipPath>
</defs>
</svg>
